<?xml version="1.0" encoding="UTF-8"?>
<svg id="_레이어_2" data-name="레이어 2" xmlns="http://www.w3.org/2000/svg" viewBox="0 0 181.79 181.79">
  <defs>
    <style>
      .cls-1 {
        fill: #fff;
      }

      .cls-2 {
        fill: #193160;
      }

      .cls-3 {
        fill: #1a264b;
        stroke: #000;
        stroke-miterlimit: 10;
      }
    </style>
  </defs>
  <g id="_레이어_1-2" data-name="레이어 1">
    <g>
      <g>
        <rect class="cls-3" x=".5" y=".5" width="180.79" height="180.79"/>
        <path class="cls-2" d="m150.17,11.96c0,68.53-55.56,124.09-124.09,124.09-8.77,0-17.33-.91-25.58-2.64V.5h149.15c.34,3.77.52,7.6.52,11.46Z"/>
      </g>
      <g>
        <path class="cls-1" d="m43.73,132.25h-9.86c-.42,0-.63-.21-.63-.63v-8.49c0-.45.21-.68.63-.68h31.58c.45,0,.68.23.68.68v8.49c0,.42-.23.63-.68.63h-9.98v27.99c0,.45-.23.68-.68.68h-10.43c-.42,0-.63-.23-.63-.68v-27.99Z"/>
        <path class="cls-1" d="m81.49,160.09c-2.53-1.01-4.66-2.38-6.41-4.13s-3.09-3.82-4.02-6.21c-.93-2.4-1.4-4.98-1.4-7.76,0-2.92.5-5.62,1.51-8.09,1.01-2.47,2.42-4.6,4.25-6.38,1.82-1.79,4.03-3.18,6.61-4.19s5.45-1.51,8.61-1.51,6.13.5,8.69,1.48,4.73,2.36,6.5,4.11,3.11,3.82,4.05,6.21c.93,2.39,1.4,5.01,1.4,7.87s-.49,5.61-1.48,8.07c-.99,2.45-2.4,4.57-4.25,6.36s-4.08,3.18-6.7,4.19c-2.62,1.01-5.57,1.51-8.83,1.51s-6-.5-8.52-1.51Zm12.48-8.69c1.05-.53,1.93-1.26,2.65-2.19.72-.93,1.27-2.03,1.65-3.31.38-1.27.57-2.65.57-4.13s-.2-2.92-.6-4.22c-.4-1.29-.96-2.41-1.68-3.36s-1.61-1.69-2.65-2.22c-1.05-.53-2.22-.8-3.51-.8s-2.46.26-3.5.8c-1.05.53-1.93,1.27-2.65,2.22-.72.95-1.28,2.07-1.68,3.36-.4,1.29-.6,2.7-.6,4.22s.2,2.86.6,4.13c.4,1.28.96,2.38,1.68,3.31.72.93,1.61,1.66,2.65,2.19,1.04.53,2.21.8,3.5.8s2.52-.26,3.56-.8Z"/>
        <path class="cls-1" d="m116.97,123.58c0-.34.19-.55.57-.63,1.44-.23,3.26-.43,5.44-.6s4.95-.26,8.29-.26c2.85,0,5.3.28,7.35.85s3.74,1.31,5.07,2.22c1.33.99,2.47,2.33,3.42,4.02.95,1.69,1.42,3.6,1.42,5.73,0,1.82-.33,3.59-1,5.3-.67,1.71-1.62,3.12-2.88,4.22-1.67,1.41-3.69,2.46-6.04,3.16-2.36.7-4.98,1.05-7.87,1.05h-1.14c-.38,0-.72-.02-1.03-.06v11.63c0,.45-.21.68-.63.68h-10.32c-.46,0-.68-.23-.68-.68v-36.66Zm11.63,15.85c.3.04.59.06.85.06h1.2c1.83,0,3.33-.39,4.5-1.17s1.77-1.89,1.77-3.34c0-1.18-.46-2.11-1.37-2.79-.91-.69-2.3-1.03-4.16-1.03h-1.65c-.45,0-.83.04-1.14.11v8.15Z"/>
      </g>
      <path class="cls-1" d="m120.57,70.59h-8.06v26.72c0,3.9-3.17,7.07-7.07,7.07h-29.09c-3.9,0-7.07-3.16-7.07-7.07v-26.72h-8.06c-5.25,0-8.25-6.01-5.09-10.21l29.68-39.37c2.55-3.38,7.63-3.38,10.17,0l29.67,39.37c3.17,4.2.17,10.21-5.08,10.21Z"/>
    </g>
  </g>
</svg>